<?xml version="1.0" encoding="utf-8" standalone="no"?>
<!DOCTYPE svg PUBLIC "-//W3C//DTD SVG 1.1//EN"
  "http://www.w3.org/Graphics/SVG/1.1/DTD/svg11.dtd">
<svg xmlns:xlink="http://www.w3.org/1999/xlink" width="1144.8pt" height="856.156875pt" viewBox="0 0 1144.8 856.156875" xmlns="http://www.w3.org/2000/svg" version="1.1">
 <metadata>
  <rdf:RDF xmlns:dc="http://purl.org/dc/elements/1.1/" xmlns:cc="http://creativecommons.org/ns#" xmlns:rdf="http://www.w3.org/1999/02/22-rdf-syntax-ns#">
   <cc:Work>
    <dc:type rdf:resource="http://purl.org/dc/dcmitype/StillImage"/>
    <dc:date>2025-04-16T07:48:56.036600</dc:date>
    <dc:format>image/svg+xml</dc:format>
    <dc:creator>
     <cc:Agent>
      <dc:title>Matplotlib v3.10.1, https://matplotlib.org/</dc:title>
     </cc:Agent>
    </dc:creator>
   </cc:Work>
  </rdf:RDF>
 </metadata>
 <defs>
  <style type="text/css">*{stroke-linejoin: round; stroke-linecap: butt}</style>
 </defs>
 <g id="figure_1">
  <g id="patch_1">
   <path d="M 0 856.156875 
L 1144.8 856.156875 
L 1144.8 0 
L 0 0 
z
" style="fill: #ffffff"/>
  </g>
  <g id="axes_1">
   <g id="patch_2">
    <path d="M 113.287521 210.946977 
Q 329.657963 300.300914 562.062594 302.759037 
" clip-path="url(#p80b7947fa2)" style="fill: none; stroke: #808080; stroke-opacity: 0.7; stroke-width: 1.5; stroke-linecap: round"/>
    <path d="M 554.105347 298.67465 
L 562.062594 302.759037 
L 554.020736 306.674203 
z
" clip-path="url(#p80b7947fa2)" style="fill: #808080; fill-opacity: 0.7; stroke: #808080; stroke-opacity: 0.7; stroke-width: 1.5; stroke-linecap: round"/>
   </g>
   <g id="patch_3">
    <path d="M 113.954556 398.00226 
Q 348.036086 395.526113 562.856395 306.812022 
" clip-path="url(#p80b7947fa2)" style="fill: none; stroke: #808080; stroke-opacity: 0.7; stroke-width: 1.5; stroke-linecap: round"/>
    <path d="M 553.935304 306.168488 
L 562.856395 306.812022 
L 556.988914 313.562774 
z
" clip-path="url(#p80b7947fa2)" style="fill: #808080; fill-opacity: 0.7; stroke: #808080; stroke-opacity: 0.7; stroke-width: 1.5; stroke-linecap: round"/>
   </g>
   <g id="patch_4">
    <path d="M 581.061994 302.776758 
Q 815.143524 300.300611 1029.963833 211.58652 
" clip-path="url(#p80b7947fa2)" style="fill: none; stroke: #808080; stroke-opacity: 0.7; stroke-width: 1.5; stroke-linecap: round"/>
    <path d="M 1021.042742 210.942986 
L 1029.963833 211.58652 
L 1024.096352 218.337273 
z
" clip-path="url(#p80b7947fa2)" style="fill: #808080; fill-opacity: 0.7; stroke: #808080; stroke-opacity: 0.7; stroke-width: 1.5; stroke-linecap: round"/>
   </g>
   <g id="patch_5">
    <path d="M 580.394959 306.172479 
Q 796.765401 395.526416 1029.170032 397.984539 
" clip-path="url(#p80b7947fa2)" style="fill: none; stroke: #808080; stroke-opacity: 0.7; stroke-width: 1.5; stroke-linecap: round"/>
    <path d="M 1021.212785 393.900152 
L 1029.170032 397.984539 
L 1021.128175 401.899705 
z
" clip-path="url(#p80b7947fa2)" style="fill: #808080; fill-opacity: 0.7; stroke: #808080; stroke-opacity: 0.7; stroke-width: 1.5; stroke-linecap: round"/>
   </g>
   <g id="patch_6">
    <path d="M 570.774777 311.344636 
Q 554.97991 398.065288 570.474688 483.136034 
" clip-path="url(#p80b7947fa2)" style="fill: none; stroke: #808080; stroke-opacity: 0.7; stroke-width: 1.5; stroke-linecap: round"/>
    <path d="M 572.97641 474.548754 
L 570.474688 483.136034 
L 565.105896 475.982288 
z
" clip-path="url(#p80b7947fa2)" style="fill: #808080; fill-opacity: 0.7; stroke: #808080; stroke-opacity: 0.7; stroke-width: 1.5; stroke-linecap: round"/>
   </g>
   <g id="patch_7">
    <path d="M 570.737898 311.338824 
Q 535.971694 493.290711 570.423563 673.595349 
" clip-path="url(#p80b7947fa2)" style="fill: none; stroke: #808080; stroke-opacity: 0.7; stroke-width: 1.5; stroke-linecap: round"/>
    <path d="M 572.851039 664.986786 
L 570.423563 673.595349 
L 564.993198 666.48823 
z
" clip-path="url(#p80b7947fa2)" style="fill: #808080; fill-opacity: 0.7; stroke: #808080; stroke-opacity: 0.7; stroke-width: 1.5; stroke-linecap: round"/>
   </g>
   <g id="patch_8">
    <path d="M 566.85497 296.184641 
Q 473.62437 185.538995 347.95496 117.281352 
" clip-path="url(#p80b7947fa2)" style="fill: none; stroke: #808080; stroke-opacity: 0.7; stroke-width: 1.5; stroke-linecap: round"/>
    <path d="M 353.075748 124.614668 
L 347.95496 117.281352 
L 356.894086 117.584711 
z
" clip-path="url(#p80b7947fa2)" style="fill: #808080; fill-opacity: 0.7; stroke: #808080; stroke-opacity: 0.7; stroke-width: 1.5; stroke-linecap: round"/>
   </g>
   <g id="patch_9">
    <path d="M 574.025223 294.332609 
Q 589.82009 207.611956 574.325312 122.54121 
" clip-path="url(#p80b7947fa2)" style="fill: none; stroke: #808080; stroke-opacity: 0.7; stroke-width: 1.5; stroke-linecap: round"/>
    <path d="M 571.82359 131.128491 
L 574.325312 122.54121 
L 579.694104 129.694956 
z
" clip-path="url(#p80b7947fa2)" style="fill: #808080; fill-opacity: 0.7; stroke: #808080; stroke-opacity: 0.7; stroke-width: 1.5; stroke-linecap: round"/>
   </g>
   <g id="patch_10">
    <path d="M 580.033706 298.746025 
Q 707.176985 229.688147 799.327129 120.325186 
" clip-path="url(#p80b7947fa2)" style="fill: none; stroke: #808080; stroke-opacity: 0.7; stroke-width: 1.5; stroke-linecap: round"/>
    <path d="M 791.113356 123.865515 
L 799.327129 120.325186 
L 797.231129 129.020402 
z
" clip-path="url(#p80b7947fa2)" style="fill: #808080; fill-opacity: 0.7; stroke: #808080; stroke-opacity: 0.7; stroke-width: 1.5; stroke-linecap: round"/>
   </g>
   <g id="patch_11">
    <path d="M 570.749724 311.343183 
Q 545.48268 445.676586 570.439613 578.361839 
" clip-path="url(#p80b7947fa2)" style="fill: none; stroke: #808080; stroke-opacity: 0.7; stroke-width: 1.5; stroke-linecap: round"/>
    <path d="M 572.891881 569.760305 
L 570.439613 578.361839 
L 565.029747 571.239104 
z
" clip-path="url(#p80b7947fa2)" style="fill: #808080; fill-opacity: 0.7; stroke: #808080; stroke-opacity: 0.7; stroke-width: 1.5; stroke-linecap: round"/>
   </g>
   <g id="patch_12">
    <path d="M 580.906664 494.928991 
Q 689.17725 515.005705 795.798895 495.234614 
" clip-path="url(#p80b7947fa2)" style="fill: none; stroke: #808080; stroke-opacity: 0.7; stroke-width: 1.5; stroke-linecap: round"/>
    <path d="M 787.20369 492.760253 
L 795.798895 495.234614 
L 788.662283 500.62616 
z
" clip-path="url(#p80b7947fa2)" style="fill: #808080; fill-opacity: 0.7; stroke: #808080; stroke-opacity: 0.7; stroke-width: 1.5; stroke-linecap: round"/>
   </g>
   <g id="patch_13">
    <path d="M 570.848848 501.807263 
Q 564.428619 540.902275 570.577049 578.342402 
" clip-path="url(#p80b7947fa2)" style="fill: none; stroke: #808080; stroke-opacity: 0.7; stroke-width: 1.5; stroke-linecap: round"/>
    <path d="M 573.227781 569.799942 
L 570.577049 578.342402 
L 565.33352 571.09634 
z
" clip-path="url(#p80b7947fa2)" style="fill: #808080; fill-opacity: 0.7; stroke: #808080; stroke-opacity: 0.7; stroke-width: 1.5; stroke-linecap: round"/>
   </g>
   <g id="patch_14">
    <path d="M 563.907374 685.42897 
Q 446.72265 709.519042 347.51181 773.325906 
" clip-path="url(#p80b7947fa2)" style="fill: none; stroke: #808080; stroke-opacity: 0.7; stroke-width: 1.5; stroke-linecap: round"/>
    <path d="M 356.404073 772.362754 
L 347.51181 773.325906 
L 352.076646 765.634205 
z
" clip-path="url(#p80b7947fa2)" style="fill: #808080; fill-opacity: 0.7; stroke: #808080; stroke-opacity: 0.7; stroke-width: 1.5; stroke-linecap: round"/>
   </g>
   <g id="patch_15">
    <path d="M 579.652008 688.471757 
Q 680.273115 753.186392 795.814895 776.939367 
" clip-path="url(#p80b7947fa2)" style="fill: none; stroke: #808080; stroke-opacity: 0.7; stroke-width: 1.5; stroke-linecap: round"/>
    <path d="M 788.784241 771.41036 
L 795.814895 776.939367 
L 787.173298 779.246486 
z
" clip-path="url(#p80b7947fa2)" style="fill: #808080; fill-opacity: 0.7; stroke: #808080; stroke-opacity: 0.7; stroke-width: 1.5; stroke-linecap: round"/>
   </g>
   <g id="patch_16">
    <path d="M 807.603995 770.461571 
Q 832.871039 636.128168 807.914106 503.442915 
" clip-path="url(#p80b7947fa2)" style="fill: none; stroke: #808080; stroke-opacity: 0.7; stroke-width: 1.5; stroke-linecap: round"/>
    <path d="M 805.461838 512.044448 
L 807.914106 503.442915 
L 813.323972 510.56565 
z
" clip-path="url(#p80b7947fa2)" style="fill: #808080; fill-opacity: 0.7; stroke: #808080; stroke-opacity: 0.7; stroke-width: 1.5; stroke-linecap: round"/>
   </g>
   <g id="PathCollection_1">
    <defs>
     <path id="mca1f26e29a" d="M -27.386128 27.386128 
L 27.386128 27.386128 
L 27.386128 -27.386128 
L -27.386128 -27.386128 
z
" style="stroke: #add8e6; stroke-opacity: 0.8"/>
    </defs>
    <g clip-path="url(#p80b7947fa2)">
     <use xlink:href="#mca1f26e29a" x="105.292562" y="207.613121" style="fill: #add8e6; fill-opacity: 0.8; stroke: #add8e6; stroke-opacity: 0.8"/>
     <use xlink:href="#mca1f26e29a" x="105.292562" y="398.064124" style="fill: #add8e6; fill-opacity: 0.8; stroke: #add8e6; stroke-opacity: 0.8"/>
     <use xlink:href="#mca1f26e29a" x="1039.507438" y="207.613121" style="fill: #add8e6; fill-opacity: 0.8; stroke: #add8e6; stroke-opacity: 0.8"/>
     <use xlink:href="#mca1f26e29a" x="1039.507438" y="398.064124" style="fill: #add8e6; fill-opacity: 0.8; stroke: #add8e6; stroke-opacity: 0.8"/>
    </g>
   </g>
   <g id="PathCollection_2">
    <defs>
     <path id="m9dafe8f7f5" d="M 0 27.386128 
C 7.262886 27.386128 14.229281 24.500553 19.364917 19.364917 
C 24.500553 14.229281 27.386128 7.262886 27.386128 0 
C 27.386128 -7.262886 24.500553 -14.229281 19.364917 -19.364917 
C 14.229281 -24.500553 7.262886 -27.386128 0 -27.386128 
C -7.262886 -27.386128 -14.229281 -24.500553 -19.364917 -19.364917 
C -24.500553 -14.229281 -27.386128 -7.262886 -27.386128 0 
C -27.386128 7.262886 -24.500553 14.229281 -19.364917 19.364917 
C -14.229281 24.500553 -7.262886 27.386128 0 27.386128 
z
" style="stroke: #90ee90; stroke-opacity: 0.8"/>
    </defs>
    <g clip-path="url(#p80b7947fa2)">
     <use xlink:href="#m9dafe8f7f5" x="572.4" y="302.838622" style="fill: #90ee90; fill-opacity: 0.8; stroke: #90ee90; stroke-opacity: 0.8"/>
     <use xlink:href="#m9dafe8f7f5" x="572.4" y="493.289626" style="fill: #90ee90; fill-opacity: 0.8; stroke: #90ee90; stroke-opacity: 0.8"/>
     <use xlink:href="#m9dafe8f7f5" x="805.953719" y="493.289626" style="fill: #90ee90; fill-opacity: 0.8; stroke: #90ee90; stroke-opacity: 0.8"/>
     <use xlink:href="#m9dafe8f7f5" x="572.4" y="683.740629" style="fill: #90ee90; fill-opacity: 0.8; stroke: #90ee90; stroke-opacity: 0.8"/>
    </g>
   </g>
   <g id="PathCollection_3">
    <defs>
     <path id="m7f95f1a794" d="M 0 -25 
L -21.650635 -12.5 
L -21.650635 12.5 
L -0 25 
L 21.650635 12.5 
L 21.650635 -12.5 
z
" style="stroke: #ffffe0; stroke-opacity: 0.8"/>
    </defs>
    <g clip-path="url(#p80b7947fa2)">
     <use xlink:href="#m7f95f1a794" x="338.846281" y="112.387619" style="fill: #ffffe0; fill-opacity: 0.8; stroke: #ffffe0; stroke-opacity: 0.8"/>
     <use xlink:href="#m7f95f1a794" x="572.4" y="112.387619" style="fill: #ffffe0; fill-opacity: 0.8; stroke: #ffffe0; stroke-opacity: 0.8"/>
     <use xlink:href="#m7f95f1a794" x="805.953719" y="112.387619" style="fill: #ffffe0; fill-opacity: 0.8; stroke: #ffffe0; stroke-opacity: 0.8"/>
     <use xlink:href="#m7f95f1a794" x="572.4" y="588.515128" style="fill: #ffffe0; fill-opacity: 0.8; stroke: #ffffe0; stroke-opacity: 0.8"/>
    </g>
   </g>
   <g id="PathCollection_4">
    <defs>
     <path id="m55e54023b7" d="M -0 35.355339 
L 21.213203 0 
L 0 -35.355339 
L -21.213203 -0 
z
" style="stroke: #ffb6c1; stroke-opacity: 0.8"/>
    </defs>
    <g clip-path="url(#p80b7947fa2)">
     <use xlink:href="#m55e54023b7" x="338.846281" y="778.966131" style="fill: #ffb6c1; fill-opacity: 0.8; stroke: #ffb6c1; stroke-opacity: 0.8"/>
     <use xlink:href="#m55e54023b7" x="805.953719" y="778.966131" style="fill: #ffb6c1; fill-opacity: 0.8; stroke: #ffb6c1; stroke-opacity: 0.8"/>
    </g>
   </g>
   <g id="text_1">
    <g clip-path="url(#p80b7947fa2)">
     <!-- WhatsApp -->
     <g transform="translate(76.451156 204.773589) scale(0.1 -0.1)">
      <defs>
       <path id="DejaVuSans-Bold-57" d="M 191 4666 
L 1344 4666 
L 2150 1275 
L 2950 4666 
L 4109 4666 
L 4909 1275 
L 5716 4666 
L 6859 4666 
L 5759 0 
L 4372 0 
L 3525 3547 
L 2688 0 
L 1300 0 
L 191 4666 
z
" transform="scale(0.015625)"/>
       <path id="DejaVuSans-Bold-68" d="M 4056 2131 
L 4056 0 
L 2931 0 
L 2931 347 
L 2931 1625 
Q 2931 2084 2911 2256 
Q 2891 2428 2841 2509 
Q 2775 2619 2662 2680 
Q 2550 2741 2406 2741 
Q 2056 2741 1856 2470 
Q 1656 2200 1656 1722 
L 1656 0 
L 538 0 
L 538 4863 
L 1656 4863 
L 1656 2988 
Q 1909 3294 2193 3439 
Q 2478 3584 2822 3584 
Q 3428 3584 3742 3212 
Q 4056 2841 4056 2131 
z
" transform="scale(0.015625)"/>
       <path id="DejaVuSans-Bold-61" d="M 2106 1575 
Q 1756 1575 1579 1456 
Q 1403 1338 1403 1106 
Q 1403 894 1545 773 
Q 1688 653 1941 653 
Q 2256 653 2472 879 
Q 2688 1106 2688 1447 
L 2688 1575 
L 2106 1575 
z
M 3816 1997 
L 3816 0 
L 2688 0 
L 2688 519 
Q 2463 200 2181 54 
Q 1900 -91 1497 -91 
Q 953 -91 614 226 
Q 275 544 275 1050 
Q 275 1666 698 1953 
Q 1122 2241 2028 2241 
L 2688 2241 
L 2688 2328 
Q 2688 2594 2478 2717 
Q 2269 2841 1825 2841 
Q 1466 2841 1156 2769 
Q 847 2697 581 2553 
L 581 3406 
Q 941 3494 1303 3539 
Q 1666 3584 2028 3584 
Q 2975 3584 3395 3211 
Q 3816 2838 3816 1997 
z
" transform="scale(0.015625)"/>
       <path id="DejaVuSans-Bold-74" d="M 1759 4494 
L 1759 3500 
L 2913 3500 
L 2913 2700 
L 1759 2700 
L 1759 1216 
Q 1759 972 1856 886 
Q 1953 800 2241 800 
L 2816 800 
L 2816 0 
L 1856 0 
Q 1194 0 917 276 
Q 641 553 641 1216 
L 641 2700 
L 84 2700 
L 84 3500 
L 641 3500 
L 641 4494 
L 1759 4494 
z
" transform="scale(0.015625)"/>
       <path id="DejaVuSans-Bold-73" d="M 3272 3391 
L 3272 2541 
Q 2913 2691 2578 2766 
Q 2244 2841 1947 2841 
Q 1628 2841 1473 2761 
Q 1319 2681 1319 2516 
Q 1319 2381 1436 2309 
Q 1553 2238 1856 2203 
L 2053 2175 
Q 2913 2066 3209 1816 
Q 3506 1566 3506 1031 
Q 3506 472 3093 190 
Q 2681 -91 1863 -91 
Q 1516 -91 1145 -36 
Q 775 19 384 128 
L 384 978 
Q 719 816 1070 734 
Q 1422 653 1784 653 
Q 2113 653 2278 743 
Q 2444 834 2444 1013 
Q 2444 1163 2330 1236 
Q 2216 1309 1875 1350 
L 1678 1375 
Q 931 1469 631 1722 
Q 331 1975 331 2491 
Q 331 3047 712 3315 
Q 1094 3584 1881 3584 
Q 2191 3584 2531 3537 
Q 2872 3491 3272 3391 
z
" transform="scale(0.015625)"/>
       <path id="DejaVuSans-Bold-41" d="M 3419 850 
L 1538 850 
L 1241 0 
L 31 0 
L 1759 4666 
L 3194 4666 
L 4922 0 
L 3713 0 
L 3419 850 
z
M 1838 1716 
L 3116 1716 
L 2478 3572 
L 1838 1716 
z
" transform="scale(0.015625)"/>
       <path id="DejaVuSans-Bold-70" d="M 1656 506 
L 1656 -1331 
L 538 -1331 
L 538 3500 
L 1656 3500 
L 1656 2988 
Q 1888 3294 2169 3439 
Q 2450 3584 2816 3584 
Q 3463 3584 3878 3070 
Q 4294 2556 4294 1747 
Q 4294 938 3878 423 
Q 3463 -91 2816 -91 
Q 2450 -91 2169 54 
Q 1888 200 1656 506 
z
M 2400 2772 
Q 2041 2772 1848 2508 
Q 1656 2244 1656 1747 
Q 1656 1250 1848 986 
Q 2041 722 2400 722 
Q 2759 722 2948 984 
Q 3138 1247 3138 1747 
Q 3138 2247 2948 2509 
Q 2759 2772 2400 2772 
z
" transform="scale(0.015625)"/>
      </defs>
      <use xlink:href="#DejaVuSans-Bold-57"/>
      <use xlink:href="#DejaVuSans-Bold-68" transform="translate(110.302734 0)"/>
      <use xlink:href="#DejaVuSans-Bold-61" transform="translate(181.494141 0)"/>
      <use xlink:href="#DejaVuSans-Bold-74" transform="translate(248.974609 0)"/>
      <use xlink:href="#DejaVuSans-Bold-73" transform="translate(296.777344 0)"/>
      <use xlink:href="#DejaVuSans-Bold-41" transform="translate(356.298828 0)"/>
      <use xlink:href="#DejaVuSans-Bold-70" transform="translate(433.691406 0)"/>
      <use xlink:href="#DejaVuSans-Bold-70" transform="translate(505.273438 0)"/>
     </g>
    </g>
    <g clip-path="url(#p80b7947fa2)">
     <!-- Business API -->
     <g transform="translate(69.194906 215.971402) scale(0.1 -0.1)">
      <defs>
       <path id="DejaVuSans-Bold-42" d="M 2456 2859 
Q 2741 2859 2887 2984 
Q 3034 3109 3034 3353 
Q 3034 3594 2887 3720 
Q 2741 3847 2456 3847 
L 1791 3847 
L 1791 2859 
L 2456 2859 
z
M 2497 819 
Q 2859 819 3042 972 
Q 3225 1125 3225 1434 
Q 3225 1738 3044 1889 
Q 2863 2041 2497 2041 
L 1791 2041 
L 1791 819 
L 2497 819 
z
M 3616 2497 
Q 4003 2384 4215 2081 
Q 4428 1778 4428 1338 
Q 4428 663 3972 331 
Q 3516 0 2584 0 
L 588 0 
L 588 4666 
L 2394 4666 
Q 3366 4666 3802 4372 
Q 4238 4078 4238 3431 
Q 4238 3091 4078 2852 
Q 3919 2613 3616 2497 
z
" transform="scale(0.015625)"/>
       <path id="DejaVuSans-Bold-75" d="M 500 1363 
L 500 3500 
L 1625 3500 
L 1625 3150 
Q 1625 2866 1622 2436 
Q 1619 2006 1619 1863 
Q 1619 1441 1641 1255 
Q 1663 1069 1716 984 
Q 1784 875 1895 815 
Q 2006 756 2150 756 
Q 2500 756 2700 1025 
Q 2900 1294 2900 1772 
L 2900 3500 
L 4019 3500 
L 4019 0 
L 2900 0 
L 2900 506 
Q 2647 200 2364 54 
Q 2081 -91 1741 -91 
Q 1134 -91 817 281 
Q 500 653 500 1363 
z
" transform="scale(0.015625)"/>
       <path id="DejaVuSans-Bold-69" d="M 538 3500 
L 1656 3500 
L 1656 0 
L 538 0 
L 538 3500 
z
M 538 4863 
L 1656 4863 
L 1656 3950 
L 538 3950 
L 538 4863 
z
" transform="scale(0.015625)"/>
       <path id="DejaVuSans-Bold-6e" d="M 4056 2131 
L 4056 0 
L 2931 0 
L 2931 347 
L 2931 1631 
Q 2931 2084 2911 2256 
Q 2891 2428 2841 2509 
Q 2775 2619 2662 2680 
Q 2550 2741 2406 2741 
Q 2056 2741 1856 2470 
Q 1656 2200 1656 1722 
L 1656 0 
L 538 0 
L 538 3500 
L 1656 3500 
L 1656 2988 
Q 1909 3294 2193 3439 
Q 2478 3584 2822 3584 
Q 3428 3584 3742 3212 
Q 4056 2841 4056 2131 
z
" transform="scale(0.015625)"/>
       <path id="DejaVuSans-Bold-65" d="M 4031 1759 
L 4031 1441 
L 1416 1441 
Q 1456 1047 1700 850 
Q 1944 653 2381 653 
Q 2734 653 3104 758 
Q 3475 863 3866 1075 
L 3866 213 
Q 3469 63 3072 -14 
Q 2675 -91 2278 -91 
Q 1328 -91 801 392 
Q 275 875 275 1747 
Q 275 2603 792 3093 
Q 1309 3584 2216 3584 
Q 3041 3584 3536 3087 
Q 4031 2591 4031 1759 
z
M 2881 2131 
Q 2881 2450 2695 2645 
Q 2509 2841 2209 2841 
Q 1884 2841 1681 2658 
Q 1478 2475 1428 2131 
L 2881 2131 
z
" transform="scale(0.015625)"/>
       <path id="DejaVuSans-Bold-20" transform="scale(0.015625)"/>
       <path id="DejaVuSans-Bold-50" d="M 588 4666 
L 2584 4666 
Q 3475 4666 3951 4270 
Q 4428 3875 4428 3144 
Q 4428 2409 3951 2014 
Q 3475 1619 2584 1619 
L 1791 1619 
L 1791 0 
L 588 0 
L 588 4666 
z
M 1791 3794 
L 1791 2491 
L 2456 2491 
Q 2806 2491 2997 2661 
Q 3188 2831 3188 3144 
Q 3188 3456 2997 3625 
Q 2806 3794 2456 3794 
L 1791 3794 
z
" transform="scale(0.015625)"/>
       <path id="DejaVuSans-Bold-49" d="M 588 4666 
L 1791 4666 
L 1791 0 
L 588 0 
L 588 4666 
z
" transform="scale(0.015625)"/>
      </defs>
      <use xlink:href="#DejaVuSans-Bold-42"/>
      <use xlink:href="#DejaVuSans-Bold-75" transform="translate(76.220703 0)"/>
      <use xlink:href="#DejaVuSans-Bold-73" transform="translate(147.412109 0)"/>
      <use xlink:href="#DejaVuSans-Bold-69" transform="translate(206.933594 0)"/>
      <use xlink:href="#DejaVuSans-Bold-6e" transform="translate(241.210938 0)"/>
      <use xlink:href="#DejaVuSans-Bold-65" transform="translate(312.402344 0)"/>
      <use xlink:href="#DejaVuSans-Bold-73" transform="translate(380.224609 0)"/>
      <use xlink:href="#DejaVuSans-Bold-73" transform="translate(439.746094 0)"/>
      <use xlink:href="#DejaVuSans-Bold-20" transform="translate(499.267578 0)"/>
      <use xlink:href="#DejaVuSans-Bold-41" transform="translate(534.082031 0)"/>
      <use xlink:href="#DejaVuSans-Bold-50" transform="translate(611.474609 0)"/>
      <use xlink:href="#DejaVuSans-Bold-49" transform="translate(684.765625 0)"/>
     </g>
    </g>
   </g>
   <g id="text_2">
    <g clip-path="url(#p80b7947fa2)">
     <!-- Email Service -->
     <g transform="translate(67.337093 395.224593) scale(0.1 -0.1)">
      <defs>
       <path id="DejaVuSans-Bold-45" d="M 588 4666 
L 3834 4666 
L 3834 3756 
L 1791 3756 
L 1791 2888 
L 3713 2888 
L 3713 1978 
L 1791 1978 
L 1791 909 
L 3903 909 
L 3903 0 
L 588 0 
L 588 4666 
z
" transform="scale(0.015625)"/>
       <path id="DejaVuSans-Bold-6d" d="M 3781 2919 
Q 3994 3244 4286 3414 
Q 4578 3584 4928 3584 
Q 5531 3584 5847 3212 
Q 6163 2841 6163 2131 
L 6163 0 
L 5038 0 
L 5038 1825 
Q 5041 1866 5042 1909 
Q 5044 1953 5044 2034 
Q 5044 2406 4934 2573 
Q 4825 2741 4581 2741 
Q 4263 2741 4089 2478 
Q 3916 2216 3909 1719 
L 3909 0 
L 2784 0 
L 2784 1825 
Q 2784 2406 2684 2573 
Q 2584 2741 2328 2741 
Q 2006 2741 1831 2477 
Q 1656 2213 1656 1722 
L 1656 0 
L 531 0 
L 531 3500 
L 1656 3500 
L 1656 2988 
Q 1863 3284 2130 3434 
Q 2397 3584 2719 3584 
Q 3081 3584 3359 3409 
Q 3638 3234 3781 2919 
z
" transform="scale(0.015625)"/>
       <path id="DejaVuSans-Bold-6c" d="M 538 4863 
L 1656 4863 
L 1656 0 
L 538 0 
L 538 4863 
z
" transform="scale(0.015625)"/>
       <path id="DejaVuSans-Bold-53" d="M 3834 4519 
L 3834 3531 
Q 3450 3703 3084 3790 
Q 2719 3878 2394 3878 
Q 1963 3878 1756 3759 
Q 1550 3641 1550 3391 
Q 1550 3203 1689 3098 
Q 1828 2994 2194 2919 
L 2706 2816 
Q 3484 2659 3812 2340 
Q 4141 2022 4141 1434 
Q 4141 663 3683 286 
Q 3225 -91 2284 -91 
Q 1841 -91 1394 -6 
Q 947 78 500 244 
L 500 1259 
Q 947 1022 1364 901 
Q 1781 781 2169 781 
Q 2563 781 2772 912 
Q 2981 1044 2981 1288 
Q 2981 1506 2839 1625 
Q 2697 1744 2272 1838 
L 1806 1941 
Q 1106 2091 782 2419 
Q 459 2747 459 3303 
Q 459 4000 909 4375 
Q 1359 4750 2203 4750 
Q 2588 4750 2994 4692 
Q 3400 4634 3834 4519 
z
" transform="scale(0.015625)"/>
       <path id="DejaVuSans-Bold-72" d="M 3138 2547 
Q 2991 2616 2845 2648 
Q 2700 2681 2553 2681 
Q 2122 2681 1889 2404 
Q 1656 2128 1656 1613 
L 1656 0 
L 538 0 
L 538 3500 
L 1656 3500 
L 1656 2925 
Q 1872 3269 2151 3426 
Q 2431 3584 2822 3584 
Q 2878 3584 2943 3579 
Q 3009 3575 3134 3559 
L 3138 2547 
z
" transform="scale(0.015625)"/>
       <path id="DejaVuSans-Bold-76" d="M 97 3500 
L 1216 3500 
L 2088 1081 
L 2956 3500 
L 4078 3500 
L 2700 0 
L 1472 0 
L 97 3500 
z
" transform="scale(0.015625)"/>
       <path id="DejaVuSans-Bold-63" d="M 3366 3391 
L 3366 2478 
Q 3138 2634 2908 2709 
Q 2678 2784 2431 2784 
Q 1963 2784 1702 2511 
Q 1441 2238 1441 1747 
Q 1441 1256 1702 982 
Q 1963 709 2431 709 
Q 2694 709 2930 787 
Q 3166 866 3366 1019 
L 3366 103 
Q 3103 6 2833 -42 
Q 2563 -91 2291 -91 
Q 1344 -91 809 395 
Q 275 881 275 1747 
Q 275 2613 809 3098 
Q 1344 3584 2291 3584 
Q 2566 3584 2833 3536 
Q 3100 3488 3366 3391 
z
" transform="scale(0.015625)"/>
      </defs>
      <use xlink:href="#DejaVuSans-Bold-45"/>
      <use xlink:href="#DejaVuSans-Bold-6d" transform="translate(68.310547 0)"/>
      <use xlink:href="#DejaVuSans-Bold-61" transform="translate(172.509766 0)"/>
      <use xlink:href="#DejaVuSans-Bold-69" transform="translate(239.990234 0)"/>
      <use xlink:href="#DejaVuSans-Bold-6c" transform="translate(274.267578 0)"/>
      <use xlink:href="#DejaVuSans-Bold-20" transform="translate(308.544922 0)"/>
      <use xlink:href="#DejaVuSans-Bold-53" transform="translate(343.359375 0)"/>
      <use xlink:href="#DejaVuSans-Bold-65" transform="translate(415.380859 0)"/>
      <use xlink:href="#DejaVuSans-Bold-72" transform="translate(483.203125 0)"/>
      <use xlink:href="#DejaVuSans-Bold-76" transform="translate(532.519531 0)"/>
      <use xlink:href="#DejaVuSans-Bold-69" transform="translate(597.705078 0)"/>
      <use xlink:href="#DejaVuSans-Bold-63" transform="translate(631.982422 0)"/>
      <use xlink:href="#DejaVuSans-Bold-65" transform="translate(691.259766 0)"/>
     </g>
    </g>
    <g clip-path="url(#p80b7947fa2)">
     <!-- (SendGrid) -->
     <g transform="translate(74.729281 406.422405) scale(0.1 -0.1)">
      <defs>
       <path id="DejaVuSans-Bold-28" d="M 2413 -844 
L 1484 -844 
Q 1006 -72 778 623 
Q 550 1319 550 2003 
Q 550 2688 779 3389 
Q 1009 4091 1484 4856 
L 2413 4856 
Q 2013 4116 1813 3408 
Q 1613 2700 1613 2009 
Q 1613 1319 1811 609 
Q 2009 -100 2413 -844 
z
" transform="scale(0.015625)"/>
       <path id="DejaVuSans-Bold-64" d="M 2919 2988 
L 2919 4863 
L 4044 4863 
L 4044 0 
L 2919 0 
L 2919 506 
Q 2688 197 2409 53 
Q 2131 -91 1766 -91 
Q 1119 -91 703 423 
Q 288 938 288 1747 
Q 288 2556 703 3070 
Q 1119 3584 1766 3584 
Q 2128 3584 2408 3439 
Q 2688 3294 2919 2988 
z
M 2181 722 
Q 2541 722 2730 984 
Q 2919 1247 2919 1747 
Q 2919 2247 2730 2509 
Q 2541 2772 2181 2772 
Q 1825 2772 1636 2509 
Q 1447 2247 1447 1747 
Q 1447 1247 1636 984 
Q 1825 722 2181 722 
z
" transform="scale(0.015625)"/>
       <path id="DejaVuSans-Bold-47" d="M 4781 347 
Q 4331 128 3847 18 
Q 3363 -91 2847 -91 
Q 1681 -91 1000 561 
Q 319 1213 319 2328 
Q 319 3456 1012 4103 
Q 1706 4750 2913 4750 
Q 3378 4750 3804 4662 
Q 4231 4575 4609 4403 
L 4609 3438 
Q 4219 3659 3833 3768 
Q 3447 3878 3059 3878 
Q 2341 3878 1952 3476 
Q 1563 3075 1563 2328 
Q 1563 1588 1938 1184 
Q 2313 781 3003 781 
Q 3191 781 3352 804 
Q 3513 828 3641 878 
L 3641 1784 
L 2906 1784 
L 2906 2591 
L 4781 2591 
L 4781 347 
z
" transform="scale(0.015625)"/>
       <path id="DejaVuSans-Bold-29" d="M 513 -844 
Q 913 -100 1113 609 
Q 1313 1319 1313 2009 
Q 1313 2700 1113 3408 
Q 913 4116 513 4856 
L 1441 4856 
Q 1916 4091 2145 3389 
Q 2375 2688 2375 2003 
Q 2375 1319 2147 623 
Q 1919 -72 1441 -844 
L 513 -844 
z
" transform="scale(0.015625)"/>
      </defs>
      <use xlink:href="#DejaVuSans-Bold-28"/>
      <use xlink:href="#DejaVuSans-Bold-53" transform="translate(45.703125 0)"/>
      <use xlink:href="#DejaVuSans-Bold-65" transform="translate(117.724609 0)"/>
      <use xlink:href="#DejaVuSans-Bold-6e" transform="translate(185.546875 0)"/>
      <use xlink:href="#DejaVuSans-Bold-64" transform="translate(256.738281 0)"/>
      <use xlink:href="#DejaVuSans-Bold-47" transform="translate(328.320312 0)"/>
      <use xlink:href="#DejaVuSans-Bold-72" transform="translate(410.400391 0)"/>
      <use xlink:href="#DejaVuSans-Bold-69" transform="translate(459.716797 0)"/>
      <use xlink:href="#DejaVuSans-Bold-64" transform="translate(493.994141 0)"/>
      <use xlink:href="#DejaVuSans-Bold-29" transform="translate(565.576172 0)"/>
     </g>
    </g>
   </g>
   <g id="text_3">
    <g clip-path="url(#p80b7947fa2)">
     <!-- Google Sheets -->
     <g transform="translate(998.799626 210.333433) scale(0.1 -0.1)">
      <defs>
       <path id="DejaVuSans-Bold-6f" d="M 2203 2784 
Q 1831 2784 1636 2517 
Q 1441 2250 1441 1747 
Q 1441 1244 1636 976 
Q 1831 709 2203 709 
Q 2569 709 2762 976 
Q 2956 1244 2956 1747 
Q 2956 2250 2762 2517 
Q 2569 2784 2203 2784 
z
M 2203 3584 
Q 3106 3584 3614 3096 
Q 4122 2609 4122 1747 
Q 4122 884 3614 396 
Q 3106 -91 2203 -91 
Q 1297 -91 786 396 
Q 275 884 275 1747 
Q 275 2609 786 3096 
Q 1297 3584 2203 3584 
z
" transform="scale(0.015625)"/>
       <path id="DejaVuSans-Bold-67" d="M 2919 594 
Q 2688 288 2409 144 
Q 2131 0 1766 0 
Q 1125 0 706 504 
Q 288 1009 288 1791 
Q 288 2575 706 3076 
Q 1125 3578 1766 3578 
Q 2131 3578 2409 3434 
Q 2688 3291 2919 2981 
L 2919 3500 
L 4044 3500 
L 4044 353 
Q 4044 -491 3511 -936 
Q 2978 -1381 1966 -1381 
Q 1638 -1381 1331 -1331 
Q 1025 -1281 716 -1178 
L 716 -306 
Q 1009 -475 1290 -558 
Q 1572 -641 1856 -641 
Q 2406 -641 2662 -400 
Q 2919 -159 2919 353 
L 2919 594 
z
M 2181 2772 
Q 1834 2772 1640 2515 
Q 1447 2259 1447 1791 
Q 1447 1309 1634 1061 
Q 1822 813 2181 813 
Q 2531 813 2725 1069 
Q 2919 1325 2919 1791 
Q 2919 2259 2725 2515 
Q 2531 2772 2181 2772 
z
" transform="scale(0.015625)"/>
      </defs>
      <use xlink:href="#DejaVuSans-Bold-47"/>
      <use xlink:href="#DejaVuSans-Bold-6f" transform="translate(82.080078 0)"/>
      <use xlink:href="#DejaVuSans-Bold-6f" transform="translate(150.78125 0)"/>
      <use xlink:href="#DejaVuSans-Bold-67" transform="translate(219.482422 0)"/>
      <use xlink:href="#DejaVuSans-Bold-6c" transform="translate(291.064453 0)"/>
      <use xlink:href="#DejaVuSans-Bold-65" transform="translate(325.341797 0)"/>
      <use xlink:href="#DejaVuSans-Bold-20" transform="translate(393.164062 0)"/>
      <use xlink:href="#DejaVuSans-Bold-53" transform="translate(427.978516 0)"/>
      <use xlink:href="#DejaVuSans-Bold-68" transform="translate(500 0)"/>
      <use xlink:href="#DejaVuSans-Bold-65" transform="translate(571.191406 0)"/>
      <use xlink:href="#DejaVuSans-Bold-65" transform="translate(639.013672 0)"/>
      <use xlink:href="#DejaVuSans-Bold-74" transform="translate(706.835938 0)"/>
      <use xlink:href="#DejaVuSans-Bold-73" transform="translate(754.638672 0)"/>
     </g>
    </g>
   </g>
   <g id="text_4">
    <g clip-path="url(#p80b7947fa2)">
     <!-- Document -->
     <g transform="translate(1010.847282 395.18553) scale(0.1 -0.1)">
      <defs>
       <path id="DejaVuSans-Bold-44" d="M 1791 3756 
L 1791 909 
L 2222 909 
Q 2959 909 3348 1275 
Q 3738 1641 3738 2338 
Q 3738 3031 3350 3393 
Q 2963 3756 2222 3756 
L 1791 3756 
z
M 588 4666 
L 1856 4666 
Q 2919 4666 3439 4514 
Q 3959 4363 4331 4000 
Q 4659 3684 4818 3271 
Q 4978 2859 4978 2338 
Q 4978 1809 4818 1395 
Q 4659 981 4331 666 
Q 3956 303 3431 151 
Q 2906 0 1856 0 
L 588 0 
L 588 4666 
z
" transform="scale(0.015625)"/>
      </defs>
      <use xlink:href="#DejaVuSans-Bold-44"/>
      <use xlink:href="#DejaVuSans-Bold-6f" transform="translate(83.007812 0)"/>
      <use xlink:href="#DejaVuSans-Bold-63" transform="translate(151.708984 0)"/>
      <use xlink:href="#DejaVuSans-Bold-75" transform="translate(210.986328 0)"/>
      <use xlink:href="#DejaVuSans-Bold-6d" transform="translate(282.177734 0)"/>
      <use xlink:href="#DejaVuSans-Bold-65" transform="translate(386.376953 0)"/>
      <use xlink:href="#DejaVuSans-Bold-6e" transform="translate(454.199219 0)"/>
      <use xlink:href="#DejaVuSans-Bold-74" transform="translate(525.390625 0)"/>
     </g>
    </g>
    <g clip-path="url(#p80b7947fa2)">
     <!-- Storage -->
     <g transform="translate(1017.271501 406.383343) scale(0.1 -0.1)">
      <use xlink:href="#DejaVuSans-Bold-53"/>
      <use xlink:href="#DejaVuSans-Bold-74" transform="translate(72.021484 0)"/>
      <use xlink:href="#DejaVuSans-Bold-6f" transform="translate(119.824219 0)"/>
      <use xlink:href="#DejaVuSans-Bold-72" transform="translate(188.525391 0)"/>
      <use xlink:href="#DejaVuSans-Bold-61" transform="translate(237.841797 0)"/>
      <use xlink:href="#DejaVuSans-Bold-67" transform="translate(305.322266 0)"/>
      <use xlink:href="#DejaVuSans-Bold-65" transform="translate(376.904297 0)"/>
     </g>
    </g>
   </g>
   <g id="text_5">
    <g clip-path="url(#p80b7947fa2)">
     <!-- n8n Orchestration -->
     <g transform="translate(521.126563 305.597997) scale(0.1 -0.1)">
      <defs>
       <path id="DejaVuSans-Bold-38" d="M 2228 2088 
Q 1891 2088 1709 1903 
Q 1528 1719 1528 1375 
Q 1528 1031 1709 848 
Q 1891 666 2228 666 
Q 2563 666 2741 848 
Q 2919 1031 2919 1375 
Q 2919 1722 2741 1905 
Q 2563 2088 2228 2088 
z
M 1350 2484 
Q 925 2613 709 2878 
Q 494 3144 494 3541 
Q 494 4131 934 4440 
Q 1375 4750 2228 4750 
Q 3075 4750 3515 4442 
Q 3956 4134 3956 3541 
Q 3956 3144 3739 2878 
Q 3522 2613 3097 2484 
Q 3572 2353 3814 2058 
Q 4056 1763 4056 1313 
Q 4056 619 3595 264 
Q 3134 -91 2228 -91 
Q 1319 -91 855 264 
Q 391 619 391 1313 
Q 391 1763 633 2058 
Q 875 2353 1350 2484 
z
M 1631 3419 
Q 1631 3141 1786 2991 
Q 1941 2841 2228 2841 
Q 2509 2841 2662 2991 
Q 2816 3141 2816 3419 
Q 2816 3697 2662 3845 
Q 2509 3994 2228 3994 
Q 1941 3994 1786 3844 
Q 1631 3694 1631 3419 
z
" transform="scale(0.015625)"/>
       <path id="DejaVuSans-Bold-4f" d="M 2719 3878 
Q 2169 3878 1866 3472 
Q 1563 3066 1563 2328 
Q 1563 1594 1866 1187 
Q 2169 781 2719 781 
Q 3272 781 3575 1187 
Q 3878 1594 3878 2328 
Q 3878 3066 3575 3472 
Q 3272 3878 2719 3878 
z
M 2719 4750 
Q 3844 4750 4481 4106 
Q 5119 3463 5119 2328 
Q 5119 1197 4481 553 
Q 3844 -91 2719 -91 
Q 1597 -91 958 553 
Q 319 1197 319 2328 
Q 319 3463 958 4106 
Q 1597 4750 2719 4750 
z
" transform="scale(0.015625)"/>
      </defs>
      <use xlink:href="#DejaVuSans-Bold-6e"/>
      <use xlink:href="#DejaVuSans-Bold-38" transform="translate(71.191406 0)"/>
      <use xlink:href="#DejaVuSans-Bold-6e" transform="translate(140.771484 0)"/>
      <use xlink:href="#DejaVuSans-Bold-20" transform="translate(211.962891 0)"/>
      <use xlink:href="#DejaVuSans-Bold-4f" transform="translate(246.777344 0)"/>
      <use xlink:href="#DejaVuSans-Bold-72" transform="translate(331.787109 0)"/>
      <use xlink:href="#DejaVuSans-Bold-63" transform="translate(381.103516 0)"/>
      <use xlink:href="#DejaVuSans-Bold-68" transform="translate(440.380859 0)"/>
      <use xlink:href="#DejaVuSans-Bold-65" transform="translate(511.572266 0)"/>
      <use xlink:href="#DejaVuSans-Bold-73" transform="translate(579.394531 0)"/>
      <use xlink:href="#DejaVuSans-Bold-74" transform="translate(638.916016 0)"/>
      <use xlink:href="#DejaVuSans-Bold-72" transform="translate(686.71875 0)"/>
      <use xlink:href="#DejaVuSans-Bold-61" transform="translate(736.035156 0)"/>
      <use xlink:href="#DejaVuSans-Bold-74" transform="translate(803.515625 0)"/>
      <use xlink:href="#DejaVuSans-Bold-69" transform="translate(851.318359 0)"/>
      <use xlink:href="#DejaVuSans-Bold-6f" transform="translate(885.595703 0)"/>
      <use xlink:href="#DejaVuSans-Bold-6e" transform="translate(954.296875 0)"/>
     </g>
    </g>
   </g>
   <g id="text_6">
    <g clip-path="url(#p80b7947fa2)">
     <!-- AI Service -->
     <g transform="translate(544.142969 490.450095) scale(0.1 -0.1)">
      <use xlink:href="#DejaVuSans-Bold-41"/>
      <use xlink:href="#DejaVuSans-Bold-49" transform="translate(77.392578 0)"/>
      <use xlink:href="#DejaVuSans-Bold-20" transform="translate(114.599609 0)"/>
      <use xlink:href="#DejaVuSans-Bold-53" transform="translate(149.414062 0)"/>
      <use xlink:href="#DejaVuSans-Bold-65" transform="translate(221.435547 0)"/>
      <use xlink:href="#DejaVuSans-Bold-72" transform="translate(289.257812 0)"/>
      <use xlink:href="#DejaVuSans-Bold-76" transform="translate(338.574219 0)"/>
      <use xlink:href="#DejaVuSans-Bold-69" transform="translate(403.759766 0)"/>
      <use xlink:href="#DejaVuSans-Bold-63" transform="translate(438.037109 0)"/>
      <use xlink:href="#DejaVuSans-Bold-65" transform="translate(497.314453 0)"/>
     </g>
    </g>
    <g clip-path="url(#p80b7947fa2)">
     <!-- (OpenAI/Azure) -->
     <g transform="translate(529.296875 501.647907) scale(0.1 -0.1)">
      <defs>
       <path id="DejaVuSans-Bold-2f" d="M 1644 4666 
L 2338 4666 
L 691 -594 
L 0 -594 
L 1644 4666 
z
" transform="scale(0.015625)"/>
       <path id="DejaVuSans-Bold-7a" d="M 366 3500 
L 3419 3500 
L 3419 2719 
L 1575 800 
L 3419 800 
L 3419 0 
L 288 0 
L 288 781 
L 2131 2700 
L 366 2700 
L 366 3500 
z
" transform="scale(0.015625)"/>
      </defs>
      <use xlink:href="#DejaVuSans-Bold-28"/>
      <use xlink:href="#DejaVuSans-Bold-4f" transform="translate(45.703125 0)"/>
      <use xlink:href="#DejaVuSans-Bold-70" transform="translate(130.712891 0)"/>
      <use xlink:href="#DejaVuSans-Bold-65" transform="translate(202.294922 0)"/>
      <use xlink:href="#DejaVuSans-Bold-6e" transform="translate(270.117188 0)"/>
      <use xlink:href="#DejaVuSans-Bold-41" transform="translate(341.308594 0)"/>
      <use xlink:href="#DejaVuSans-Bold-49" transform="translate(418.701172 0)"/>
      <use xlink:href="#DejaVuSans-Bold-2f" transform="translate(455.908203 0)"/>
      <use xlink:href="#DejaVuSans-Bold-41" transform="translate(492.431641 0)"/>
      <use xlink:href="#DejaVuSans-Bold-7a" transform="translate(569.824219 0)"/>
      <use xlink:href="#DejaVuSans-Bold-75" transform="translate(628.027344 0)"/>
      <use xlink:href="#DejaVuSans-Bold-72" transform="translate(699.21875 0)"/>
      <use xlink:href="#DejaVuSans-Bold-65" transform="translate(748.535156 0)"/>
      <use xlink:href="#DejaVuSans-Bold-29" transform="translate(816.357422 0)"/>
     </g>
    </g>
   </g>
   <g id="text_7">
    <g clip-path="url(#p80b7947fa2)">
     <!-- Vector -->
     <g transform="translate(787.713094 490.450095) scale(0.1 -0.1)">
      <defs>
       <path id="DejaVuSans-Bold-56" d="M 31 4666 
L 1241 4666 
L 2478 1222 
L 3713 4666 
L 4922 4666 
L 3194 0 
L 1759 0 
L 31 4666 
z
" transform="scale(0.015625)"/>
      </defs>
      <use xlink:href="#DejaVuSans-Bold-56"/>
      <use xlink:href="#DejaVuSans-Bold-65" transform="translate(71.892578 0)"/>
      <use xlink:href="#DejaVuSans-Bold-63" transform="translate(139.714844 0)"/>
      <use xlink:href="#DejaVuSans-Bold-74" transform="translate(198.992188 0)"/>
      <use xlink:href="#DejaVuSans-Bold-6f" transform="translate(246.794922 0)"/>
      <use xlink:href="#DejaVuSans-Bold-72" transform="translate(315.496094 0)"/>
     </g>
    </g>
    <g clip-path="url(#p80b7947fa2)">
     <!-- Database -->
     <g transform="translate(779.344344 501.647907) scale(0.1 -0.1)">
      <defs>
       <path id="DejaVuSans-Bold-62" d="M 2400 722 
Q 2759 722 2948 984 
Q 3138 1247 3138 1747 
Q 3138 2247 2948 2509 
Q 2759 2772 2400 2772 
Q 2041 2772 1848 2508 
Q 1656 2244 1656 1747 
Q 1656 1250 1848 986 
Q 2041 722 2400 722 
z
M 1656 2988 
Q 1888 3294 2169 3439 
Q 2450 3584 2816 3584 
Q 3463 3584 3878 3070 
Q 4294 2556 4294 1747 
Q 4294 938 3878 423 
Q 3463 -91 2816 -91 
Q 2450 -91 2169 54 
Q 1888 200 1656 506 
L 1656 0 
L 538 0 
L 538 4863 
L 1656 4863 
L 1656 2988 
z
" transform="scale(0.015625)"/>
      </defs>
      <use xlink:href="#DejaVuSans-Bold-44"/>
      <use xlink:href="#DejaVuSans-Bold-61" transform="translate(83.007812 0)"/>
      <use xlink:href="#DejaVuSans-Bold-74" transform="translate(150.488281 0)"/>
      <use xlink:href="#DejaVuSans-Bold-61" transform="translate(198.291016 0)"/>
      <use xlink:href="#DejaVuSans-Bold-62" transform="translate(265.771484 0)"/>
      <use xlink:href="#DejaVuSans-Bold-61" transform="translate(337.353516 0)"/>
      <use xlink:href="#DejaVuSans-Bold-73" transform="translate(404.833984 0)"/>
      <use xlink:href="#DejaVuSans-Bold-65" transform="translate(464.355469 0)"/>
     </g>
    </g>
   </g>
   <g id="text_8">
    <g clip-path="url(#p80b7947fa2)">
     <!-- WebSocket -->
     <g transform="translate(541.121094 680.901098) scale(0.1 -0.1)">
      <defs>
       <path id="DejaVuSans-Bold-6b" d="M 538 4863 
L 1656 4863 
L 1656 2216 
L 2944 3500 
L 4244 3500 
L 2534 1894 
L 4378 0 
L 3022 0 
L 1656 1459 
L 1656 0 
L 538 0 
L 538 4863 
z
" transform="scale(0.015625)"/>
      </defs>
      <use xlink:href="#DejaVuSans-Bold-57"/>
      <use xlink:href="#DejaVuSans-Bold-65" transform="translate(106.677734 0)"/>
      <use xlink:href="#DejaVuSans-Bold-62" transform="translate(174.5 0)"/>
      <use xlink:href="#DejaVuSans-Bold-53" transform="translate(246.082031 0)"/>
      <use xlink:href="#DejaVuSans-Bold-6f" transform="translate(318.103516 0)"/>
      <use xlink:href="#DejaVuSans-Bold-63" transform="translate(386.804688 0)"/>
      <use xlink:href="#DejaVuSans-Bold-6b" transform="translate(446.082031 0)"/>
      <use xlink:href="#DejaVuSans-Bold-65" transform="translate(509.960938 0)"/>
      <use xlink:href="#DejaVuSans-Bold-74" transform="translate(577.783203 0)"/>
     </g>
    </g>
    <g clip-path="url(#p80b7947fa2)">
     <!-- API -->
     <g transform="translate(563.005469 692.098911) scale(0.1 -0.1)">
      <use xlink:href="#DejaVuSans-Bold-41"/>
      <use xlink:href="#DejaVuSans-Bold-50" transform="translate(77.392578 0)"/>
      <use xlink:href="#DejaVuSans-Bold-49" transform="translate(150.683594 0)"/>
     </g>
    </g>
   </g>
   <g id="text_9">
    <g clip-path="url(#p80b7947fa2)">
     <!-- Initial Contact -->
     <g transform="translate(298.997843 115.146994) scale(0.1 -0.1)">
      <defs>
       <path id="DejaVuSans-Bold-43" d="M 4288 256 
Q 3956 84 3597 -3 
Q 3238 -91 2847 -91 
Q 1681 -91 1000 561 
Q 319 1213 319 2328 
Q 319 3447 1000 4098 
Q 1681 4750 2847 4750 
Q 3238 4750 3597 4662 
Q 3956 4575 4288 4403 
L 4288 3438 
Q 3953 3666 3628 3772 
Q 3303 3878 2944 3878 
Q 2300 3878 1931 3465 
Q 1563 3053 1563 2328 
Q 1563 1606 1931 1193 
Q 2300 781 2944 781 
Q 3303 781 3628 887 
Q 3953 994 4288 1222 
L 4288 256 
z
" transform="scale(0.015625)"/>
      </defs>
      <use xlink:href="#DejaVuSans-Bold-49"/>
      <use xlink:href="#DejaVuSans-Bold-6e" transform="translate(37.207031 0)"/>
      <use xlink:href="#DejaVuSans-Bold-69" transform="translate(108.398438 0)"/>
      <use xlink:href="#DejaVuSans-Bold-74" transform="translate(142.675781 0)"/>
      <use xlink:href="#DejaVuSans-Bold-69" transform="translate(190.478516 0)"/>
      <use xlink:href="#DejaVuSans-Bold-61" transform="translate(224.755859 0)"/>
      <use xlink:href="#DejaVuSans-Bold-6c" transform="translate(292.236328 0)"/>
      <use xlink:href="#DejaVuSans-Bold-20" transform="translate(326.513672 0)"/>
      <use xlink:href="#DejaVuSans-Bold-43" transform="translate(361.328125 0)"/>
      <use xlink:href="#DejaVuSans-Bold-6f" transform="translate(434.716797 0)"/>
      <use xlink:href="#DejaVuSans-Bold-6e" transform="translate(503.417969 0)"/>
      <use xlink:href="#DejaVuSans-Bold-74" transform="translate(574.609375 0)"/>
      <use xlink:href="#DejaVuSans-Bold-61" transform="translate(622.412109 0)"/>
      <use xlink:href="#DejaVuSans-Bold-63" transform="translate(689.892578 0)"/>
      <use xlink:href="#DejaVuSans-Bold-74" transform="translate(749.169922 0)"/>
     </g>
    </g>
   </g>
   <g id="text_10">
    <g clip-path="url(#p80b7947fa2)">
     <!-- Response Processing -->
     <g transform="translate(512.776563 115.107931) scale(0.1 -0.1)">
      <defs>
       <path id="DejaVuSans-Bold-52" d="M 2297 2597 
Q 2675 2597 2839 2737 
Q 3003 2878 3003 3200 
Q 3003 3519 2839 3656 
Q 2675 3794 2297 3794 
L 1791 3794 
L 1791 2597 
L 2297 2597 
z
M 1791 1766 
L 1791 0 
L 588 0 
L 588 4666 
L 2425 4666 
Q 3347 4666 3776 4356 
Q 4206 4047 4206 3378 
Q 4206 2916 3982 2619 
Q 3759 2322 3309 2181 
Q 3556 2125 3751 1926 
Q 3947 1728 4147 1325 
L 4800 0 
L 3519 0 
L 2950 1159 
Q 2778 1509 2601 1637 
Q 2425 1766 2131 1766 
L 1791 1766 
z
" transform="scale(0.015625)"/>
      </defs>
      <use xlink:href="#DejaVuSans-Bold-52"/>
      <use xlink:href="#DejaVuSans-Bold-65" transform="translate(77.001953 0)"/>
      <use xlink:href="#DejaVuSans-Bold-73" transform="translate(144.824219 0)"/>
      <use xlink:href="#DejaVuSans-Bold-70" transform="translate(204.345703 0)"/>
      <use xlink:href="#DejaVuSans-Bold-6f" transform="translate(275.927734 0)"/>
      <use xlink:href="#DejaVuSans-Bold-6e" transform="translate(344.628906 0)"/>
      <use xlink:href="#DejaVuSans-Bold-73" transform="translate(415.820312 0)"/>
      <use xlink:href="#DejaVuSans-Bold-65" transform="translate(475.341797 0)"/>
      <use xlink:href="#DejaVuSans-Bold-20" transform="translate(543.164062 0)"/>
      <use xlink:href="#DejaVuSans-Bold-50" transform="translate(577.978516 0)"/>
      <use xlink:href="#DejaVuSans-Bold-72" transform="translate(651.269531 0)"/>
      <use xlink:href="#DejaVuSans-Bold-6f" transform="translate(700.585938 0)"/>
      <use xlink:href="#DejaVuSans-Bold-63" transform="translate(769.287109 0)"/>
      <use xlink:href="#DejaVuSans-Bold-65" transform="translate(828.564453 0)"/>
      <use xlink:href="#DejaVuSans-Bold-73" transform="translate(896.386719 0)"/>
      <use xlink:href="#DejaVuSans-Bold-73" transform="translate(955.908203 0)"/>
      <use xlink:href="#DejaVuSans-Bold-69" transform="translate(1015.429688 0)"/>
      <use xlink:href="#DejaVuSans-Bold-6e" transform="translate(1049.707031 0)"/>
      <use xlink:href="#DejaVuSans-Bold-67" transform="translate(1120.898438 0)"/>
     </g>
    </g>
   </g>
   <g id="text_11">
    <g clip-path="url(#p80b7947fa2)">
     <!-- Document Delivery -->
     <g transform="translate(752.206844 115.107931) scale(0.1 -0.1)">
      <defs>
       <path id="DejaVuSans-Bold-79" d="M 78 3500 
L 1197 3500 
L 2138 1125 
L 2938 3500 
L 4056 3500 
L 2584 -331 
Q 2363 -916 2067 -1148 
Q 1772 -1381 1288 -1381 
L 641 -1381 
L 641 -647 
L 991 -647 
Q 1275 -647 1404 -556 
Q 1534 -466 1606 -231 
L 1638 -134 
L 78 3500 
z
" transform="scale(0.015625)"/>
      </defs>
      <use xlink:href="#DejaVuSans-Bold-44"/>
      <use xlink:href="#DejaVuSans-Bold-6f" transform="translate(83.007812 0)"/>
      <use xlink:href="#DejaVuSans-Bold-63" transform="translate(151.708984 0)"/>
      <use xlink:href="#DejaVuSans-Bold-75" transform="translate(210.986328 0)"/>
      <use xlink:href="#DejaVuSans-Bold-6d" transform="translate(282.177734 0)"/>
      <use xlink:href="#DejaVuSans-Bold-65" transform="translate(386.376953 0)"/>
      <use xlink:href="#DejaVuSans-Bold-6e" transform="translate(454.199219 0)"/>
      <use xlink:href="#DejaVuSans-Bold-74" transform="translate(525.390625 0)"/>
      <use xlink:href="#DejaVuSans-Bold-20" transform="translate(573.193359 0)"/>
      <use xlink:href="#DejaVuSans-Bold-44" transform="translate(608.007812 0)"/>
      <use xlink:href="#DejaVuSans-Bold-65" transform="translate(691.015625 0)"/>
      <use xlink:href="#DejaVuSans-Bold-6c" transform="translate(758.837891 0)"/>
      <use xlink:href="#DejaVuSans-Bold-69" transform="translate(793.115234 0)"/>
      <use xlink:href="#DejaVuSans-Bold-76" transform="translate(827.392578 0)"/>
      <use xlink:href="#DejaVuSans-Bold-65" transform="translate(892.578125 0)"/>
      <use xlink:href="#DejaVuSans-Bold-72" transform="translate(960.400391 0)"/>
      <use xlink:href="#DejaVuSans-Bold-79" transform="translate(1009.716797 0)"/>
     </g>
    </g>
   </g>
   <g id="text_12">
    <g clip-path="url(#p80b7947fa2)">
     <!-- Agentic Chat -->
     <g transform="translate(536.199219 591.23544) scale(0.1 -0.1)">
      <use xlink:href="#DejaVuSans-Bold-41"/>
      <use xlink:href="#DejaVuSans-Bold-67" transform="translate(77.392578 0)"/>
      <use xlink:href="#DejaVuSans-Bold-65" transform="translate(148.974609 0)"/>
      <use xlink:href="#DejaVuSans-Bold-6e" transform="translate(216.796875 0)"/>
      <use xlink:href="#DejaVuSans-Bold-74" transform="translate(287.988281 0)"/>
      <use xlink:href="#DejaVuSans-Bold-69" transform="translate(335.791016 0)"/>
      <use xlink:href="#DejaVuSans-Bold-63" transform="translate(370.068359 0)"/>
      <use xlink:href="#DejaVuSans-Bold-20" transform="translate(429.345703 0)"/>
      <use xlink:href="#DejaVuSans-Bold-43" transform="translate(464.160156 0)"/>
      <use xlink:href="#DejaVuSans-Bold-68" transform="translate(537.548828 0)"/>
      <use xlink:href="#DejaVuSans-Bold-61" transform="translate(608.740234 0)"/>
      <use xlink:href="#DejaVuSans-Bold-74" transform="translate(676.220703 0)"/>
     </g>
    </g>
   </g>
   <g id="text_13">
    <g clip-path="url(#p80b7947fa2)">
     <!-- Customer Chat -->
     <g transform="translate(297.015812 776.1266) scale(0.1 -0.1)">
      <use xlink:href="#DejaVuSans-Bold-43"/>
      <use xlink:href="#DejaVuSans-Bold-75" transform="translate(73.388672 0)"/>
      <use xlink:href="#DejaVuSans-Bold-73" transform="translate(144.580078 0)"/>
      <use xlink:href="#DejaVuSans-Bold-74" transform="translate(204.101562 0)"/>
      <use xlink:href="#DejaVuSans-Bold-6f" transform="translate(251.904297 0)"/>
      <use xlink:href="#DejaVuSans-Bold-6d" transform="translate(320.605469 0)"/>
      <use xlink:href="#DejaVuSans-Bold-65" transform="translate(424.804688 0)"/>
      <use xlink:href="#DejaVuSans-Bold-72" transform="translate(492.626953 0)"/>
      <use xlink:href="#DejaVuSans-Bold-20" transform="translate(541.943359 0)"/>
      <use xlink:href="#DejaVuSans-Bold-43" transform="translate(576.757812 0)"/>
      <use xlink:href="#DejaVuSans-Bold-68" transform="translate(650.146484 0)"/>
      <use xlink:href="#DejaVuSans-Bold-61" transform="translate(721.337891 0)"/>
      <use xlink:href="#DejaVuSans-Bold-74" transform="translate(788.818359 0)"/>
     </g>
    </g>
    <g clip-path="url(#p80b7947fa2)">
     <!-- Interface -->
     <g transform="translate(313.275187 787.324412) scale(0.1 -0.1)">
      <defs>
       <path id="DejaVuSans-Bold-66" d="M 2841 4863 
L 2841 4128 
L 2222 4128 
Q 1984 4128 1890 4042 
Q 1797 3956 1797 3744 
L 1797 3500 
L 2753 3500 
L 2753 2700 
L 1797 2700 
L 1797 0 
L 678 0 
L 678 2700 
L 122 2700 
L 122 3500 
L 678 3500 
L 678 3744 
Q 678 4316 997 4589 
Q 1316 4863 1984 4863 
L 2841 4863 
z
" transform="scale(0.015625)"/>
      </defs>
      <use xlink:href="#DejaVuSans-Bold-49"/>
      <use xlink:href="#DejaVuSans-Bold-6e" transform="translate(37.207031 0)"/>
      <use xlink:href="#DejaVuSans-Bold-74" transform="translate(108.398438 0)"/>
      <use xlink:href="#DejaVuSans-Bold-65" transform="translate(156.201172 0)"/>
      <use xlink:href="#DejaVuSans-Bold-72" transform="translate(224.023438 0)"/>
      <use xlink:href="#DejaVuSans-Bold-66" transform="translate(273.339844 0)"/>
      <use xlink:href="#DejaVuSans-Bold-61" transform="translate(316.845703 0)"/>
      <use xlink:href="#DejaVuSans-Bold-63" transform="translate(384.326172 0)"/>
      <use xlink:href="#DejaVuSans-Bold-65" transform="translate(443.603516 0)"/>
     </g>
    </g>
   </g>
   <g id="text_14">
    <g clip-path="url(#p80b7947fa2)">
     <!-- Operator -->
     <g transform="translate(780.602157 776.1266) scale(0.1 -0.1)">
      <use xlink:href="#DejaVuSans-Bold-4f"/>
      <use xlink:href="#DejaVuSans-Bold-70" transform="translate(85.009766 0)"/>
      <use xlink:href="#DejaVuSans-Bold-65" transform="translate(156.591797 0)"/>
      <use xlink:href="#DejaVuSans-Bold-72" transform="translate(224.414062 0)"/>
      <use xlink:href="#DejaVuSans-Bold-61" transform="translate(273.730469 0)"/>
      <use xlink:href="#DejaVuSans-Bold-74" transform="translate(341.210938 0)"/>
      <use xlink:href="#DejaVuSans-Bold-6f" transform="translate(389.013672 0)"/>
      <use xlink:href="#DejaVuSans-Bold-72" transform="translate(457.714844 0)"/>
     </g>
    </g>
    <g clip-path="url(#p80b7947fa2)">
     <!-- Dashboard -->
     <g transform="translate(775.46075 787.324412) scale(0.1 -0.1)">
      <use xlink:href="#DejaVuSans-Bold-44"/>
      <use xlink:href="#DejaVuSans-Bold-61" transform="translate(83.007812 0)"/>
      <use xlink:href="#DejaVuSans-Bold-73" transform="translate(150.488281 0)"/>
      <use xlink:href="#DejaVuSans-Bold-68" transform="translate(210.009766 0)"/>
      <use xlink:href="#DejaVuSans-Bold-62" transform="translate(281.201172 0)"/>
      <use xlink:href="#DejaVuSans-Bold-6f" transform="translate(352.783203 0)"/>
      <use xlink:href="#DejaVuSans-Bold-61" transform="translate(421.484375 0)"/>
      <use xlink:href="#DejaVuSans-Bold-72" transform="translate(488.964844 0)"/>
      <use xlink:href="#DejaVuSans-Bold-64" transform="translate(538.28125 0)"/>
     </g>
    </g>
   </g>
   <g id="text_15">
    <!-- Trip Planning Automation System - Architecture -->
    <g transform="translate(302.379688 22.396875) scale(0.2 -0.2)">
     <defs>
      <path id="DejaVuSans-Bold-54" d="M 31 4666 
L 4331 4666 
L 4331 3756 
L 2784 3756 
L 2784 0 
L 1581 0 
L 1581 3756 
L 31 3756 
L 31 4666 
z
" transform="scale(0.015625)"/>
      <path id="DejaVuSans-Bold-2d" d="M 347 2297 
L 2309 2297 
L 2309 1388 
L 347 1388 
L 347 2297 
z
" transform="scale(0.015625)"/>
     </defs>
     <use xlink:href="#DejaVuSans-Bold-54"/>
     <use xlink:href="#DejaVuSans-Bold-72" transform="translate(57.212891 0)"/>
     <use xlink:href="#DejaVuSans-Bold-69" transform="translate(106.529297 0)"/>
     <use xlink:href="#DejaVuSans-Bold-70" transform="translate(140.806641 0)"/>
     <use xlink:href="#DejaVuSans-Bold-20" transform="translate(212.388672 0)"/>
     <use xlink:href="#DejaVuSans-Bold-50" transform="translate(247.203125 0)"/>
     <use xlink:href="#DejaVuSans-Bold-6c" transform="translate(320.494141 0)"/>
     <use xlink:href="#DejaVuSans-Bold-61" transform="translate(354.771484 0)"/>
     <use xlink:href="#DejaVuSans-Bold-6e" transform="translate(422.251953 0)"/>
     <use xlink:href="#DejaVuSans-Bold-6e" transform="translate(493.443359 0)"/>
     <use xlink:href="#DejaVuSans-Bold-69" transform="translate(564.634766 0)"/>
     <use xlink:href="#DejaVuSans-Bold-6e" transform="translate(598.912109 0)"/>
     <use xlink:href="#DejaVuSans-Bold-67" transform="translate(670.103516 0)"/>
     <use xlink:href="#DejaVuSans-Bold-20" transform="translate(741.685547 0)"/>
     <use xlink:href="#DejaVuSans-Bold-41" transform="translate(776.5 0)"/>
     <use xlink:href="#DejaVuSans-Bold-75" transform="translate(853.892578 0)"/>
     <use xlink:href="#DejaVuSans-Bold-74" transform="translate(925.083984 0)"/>
     <use xlink:href="#DejaVuSans-Bold-6f" transform="translate(972.886719 0)"/>
     <use xlink:href="#DejaVuSans-Bold-6d" transform="translate(1041.587891 0)"/>
     <use xlink:href="#DejaVuSans-Bold-61" transform="translate(1145.787109 0)"/>
     <use xlink:href="#DejaVuSans-Bold-74" transform="translate(1213.267578 0)"/>
     <use xlink:href="#DejaVuSans-Bold-69" transform="translate(1261.070312 0)"/>
     <use xlink:href="#DejaVuSans-Bold-6f" transform="translate(1295.347656 0)"/>
     <use xlink:href="#DejaVuSans-Bold-6e" transform="translate(1364.048828 0)"/>
     <use xlink:href="#DejaVuSans-Bold-20" transform="translate(1435.240234 0)"/>
     <use xlink:href="#DejaVuSans-Bold-53" transform="translate(1470.054688 0)"/>
     <use xlink:href="#DejaVuSans-Bold-79" transform="translate(1542.076172 0)"/>
     <use xlink:href="#DejaVuSans-Bold-73" transform="translate(1607.261719 0)"/>
     <use xlink:href="#DejaVuSans-Bold-74" transform="translate(1666.783203 0)"/>
     <use xlink:href="#DejaVuSans-Bold-65" transform="translate(1714.585938 0)"/>
     <use xlink:href="#DejaVuSans-Bold-6d" transform="translate(1782.408203 0)"/>
     <use xlink:href="#DejaVuSans-Bold-20" transform="translate(1886.607422 0)"/>
     <use xlink:href="#DejaVuSans-Bold-2d" transform="translate(1921.421875 0)"/>
     <use xlink:href="#DejaVuSans-Bold-20" transform="translate(1962.925781 0)"/>
     <use xlink:href="#DejaVuSans-Bold-41" transform="translate(1997.740234 0)"/>
     <use xlink:href="#DejaVuSans-Bold-72" transform="translate(2075.132812 0)"/>
     <use xlink:href="#DejaVuSans-Bold-63" transform="translate(2124.449219 0)"/>
     <use xlink:href="#DejaVuSans-Bold-68" transform="translate(2183.726562 0)"/>
     <use xlink:href="#DejaVuSans-Bold-69" transform="translate(2254.917969 0)"/>
     <use xlink:href="#DejaVuSans-Bold-74" transform="translate(2289.195312 0)"/>
     <use xlink:href="#DejaVuSans-Bold-65" transform="translate(2336.998047 0)"/>
     <use xlink:href="#DejaVuSans-Bold-63" transform="translate(2404.820312 0)"/>
     <use xlink:href="#DejaVuSans-Bold-74" transform="translate(2464.097656 0)"/>
     <use xlink:href="#DejaVuSans-Bold-75" transform="translate(2511.900391 0)"/>
     <use xlink:href="#DejaVuSans-Bold-72" transform="translate(2583.091797 0)"/>
     <use xlink:href="#DejaVuSans-Bold-65" transform="translate(2632.408203 0)"/>
    </g>
   </g>
   <g id="legend_1">
    <g id="patch_17">
     <path d="M 1009.014063 109.109375 
L 1130.6 109.109375 
Q 1132.6 109.109375 1132.6 107.109375 
L 1132.6 49.396875 
Q 1132.6 47.396875 1130.6 47.396875 
L 1009.014063 47.396875 
Q 1007.014063 47.396875 1007.014063 49.396875 
L 1007.014063 107.109375 
Q 1007.014063 109.109375 1009.014063 109.109375 
z
" style="fill: #ffffff; opacity: 0.8; stroke: #cccccc; stroke-linejoin: miter"/>
    </g>
    <g id="line2d_1">
     <path d="M 1011.014063 55.495312 
L 1021.014063 55.495312 
L 1031.014063 55.495312 
" style="fill: none; stroke: #ffffff; stroke-width: 1.5; stroke-linecap: square"/>
     <defs>
      <path id="m05bc9d5805" d="M -7.5 7.5 
L 7.5 7.5 
L 7.5 -7.5 
L -7.5 -7.5 
z
" style="stroke: #ffffff; stroke-linejoin: miter"/>
     </defs>
     <g>
      <use xlink:href="#m05bc9d5805" x="1021.014063" y="55.495312" style="fill: #add8e6; stroke: #ffffff; stroke-linejoin: miter"/>
     </g>
    </g>
    <g id="text_16">
     <!-- External Systems -->
     <g transform="translate(1039.014063 58.995312) scale(0.1 -0.1)">
      <defs>
       <path id="DejaVuSans-45" d="M 628 4666 
L 3578 4666 
L 3578 4134 
L 1259 4134 
L 1259 2753 
L 3481 2753 
L 3481 2222 
L 1259 2222 
L 1259 531 
L 3634 531 
L 3634 0 
L 628 0 
L 628 4666 
z
" transform="scale(0.015625)"/>
       <path id="DejaVuSans-78" d="M 3513 3500 
L 2247 1797 
L 3578 0 
L 2900 0 
L 1881 1375 
L 863 0 
L 184 0 
L 1544 1831 
L 300 3500 
L 978 3500 
L 1906 2253 
L 2834 3500 
L 3513 3500 
z
" transform="scale(0.015625)"/>
       <path id="DejaVuSans-74" d="M 1172 4494 
L 1172 3500 
L 2356 3500 
L 2356 3053 
L 1172 3053 
L 1172 1153 
Q 1172 725 1289 603 
Q 1406 481 1766 481 
L 2356 481 
L 2356 0 
L 1766 0 
Q 1100 0 847 248 
Q 594 497 594 1153 
L 594 3053 
L 172 3053 
L 172 3500 
L 594 3500 
L 594 4494 
L 1172 4494 
z
" transform="scale(0.015625)"/>
       <path id="DejaVuSans-65" d="M 3597 1894 
L 3597 1613 
L 953 1613 
Q 991 1019 1311 708 
Q 1631 397 2203 397 
Q 2534 397 2845 478 
Q 3156 559 3463 722 
L 3463 178 
Q 3153 47 2828 -22 
Q 2503 -91 2169 -91 
Q 1331 -91 842 396 
Q 353 884 353 1716 
Q 353 2575 817 3079 
Q 1281 3584 2069 3584 
Q 2775 3584 3186 3129 
Q 3597 2675 3597 1894 
z
M 3022 2063 
Q 3016 2534 2758 2815 
Q 2500 3097 2075 3097 
Q 1594 3097 1305 2825 
Q 1016 2553 972 2059 
L 3022 2063 
z
" transform="scale(0.015625)"/>
       <path id="DejaVuSans-72" d="M 2631 2963 
Q 2534 3019 2420 3045 
Q 2306 3072 2169 3072 
Q 1681 3072 1420 2755 
Q 1159 2438 1159 1844 
L 1159 0 
L 581 0 
L 581 3500 
L 1159 3500 
L 1159 2956 
Q 1341 3275 1631 3429 
Q 1922 3584 2338 3584 
Q 2397 3584 2469 3576 
Q 2541 3569 2628 3553 
L 2631 2963 
z
" transform="scale(0.015625)"/>
       <path id="DejaVuSans-6e" d="M 3513 2113 
L 3513 0 
L 2938 0 
L 2938 2094 
Q 2938 2591 2744 2837 
Q 2550 3084 2163 3084 
Q 1697 3084 1428 2787 
Q 1159 2491 1159 1978 
L 1159 0 
L 581 0 
L 581 3500 
L 1159 3500 
L 1159 2956 
Q 1366 3272 1645 3428 
Q 1925 3584 2291 3584 
Q 2894 3584 3203 3211 
Q 3513 2838 3513 2113 
z
" transform="scale(0.015625)"/>
       <path id="DejaVuSans-61" d="M 2194 1759 
Q 1497 1759 1228 1600 
Q 959 1441 959 1056 
Q 959 750 1161 570 
Q 1363 391 1709 391 
Q 2188 391 2477 730 
Q 2766 1069 2766 1631 
L 2766 1759 
L 2194 1759 
z
M 3341 1997 
L 3341 0 
L 2766 0 
L 2766 531 
Q 2569 213 2275 61 
Q 1981 -91 1556 -91 
Q 1019 -91 701 211 
Q 384 513 384 1019 
Q 384 1609 779 1909 
Q 1175 2209 1959 2209 
L 2766 2209 
L 2766 2266 
Q 2766 2663 2505 2880 
Q 2244 3097 1772 3097 
Q 1472 3097 1187 3025 
Q 903 2953 641 2809 
L 641 3341 
Q 956 3463 1253 3523 
Q 1550 3584 1831 3584 
Q 2591 3584 2966 3190 
Q 3341 2797 3341 1997 
z
" transform="scale(0.015625)"/>
       <path id="DejaVuSans-6c" d="M 603 4863 
L 1178 4863 
L 1178 0 
L 603 0 
L 603 4863 
z
" transform="scale(0.015625)"/>
       <path id="DejaVuSans-20" transform="scale(0.015625)"/>
       <path id="DejaVuSans-53" d="M 3425 4513 
L 3425 3897 
Q 3066 4069 2747 4153 
Q 2428 4238 2131 4238 
Q 1616 4238 1336 4038 
Q 1056 3838 1056 3469 
Q 1056 3159 1242 3001 
Q 1428 2844 1947 2747 
L 2328 2669 
Q 3034 2534 3370 2195 
Q 3706 1856 3706 1288 
Q 3706 609 3251 259 
Q 2797 -91 1919 -91 
Q 1588 -91 1214 -16 
Q 841 59 441 206 
L 441 856 
Q 825 641 1194 531 
Q 1563 422 1919 422 
Q 2459 422 2753 634 
Q 3047 847 3047 1241 
Q 3047 1584 2836 1778 
Q 2625 1972 2144 2069 
L 1759 2144 
Q 1053 2284 737 2584 
Q 422 2884 422 3419 
Q 422 4038 858 4394 
Q 1294 4750 2059 4750 
Q 2388 4750 2728 4690 
Q 3069 4631 3425 4513 
z
" transform="scale(0.015625)"/>
       <path id="DejaVuSans-79" d="M 2059 -325 
Q 1816 -950 1584 -1140 
Q 1353 -1331 966 -1331 
L 506 -1331 
L 506 -850 
L 844 -850 
Q 1081 -850 1212 -737 
Q 1344 -625 1503 -206 
L 1606 56 
L 191 3500 
L 800 3500 
L 1894 763 
L 2988 3500 
L 3597 3500 
L 2059 -325 
z
" transform="scale(0.015625)"/>
       <path id="DejaVuSans-73" d="M 2834 3397 
L 2834 2853 
Q 2591 2978 2328 3040 
Q 2066 3103 1784 3103 
Q 1356 3103 1142 2972 
Q 928 2841 928 2578 
Q 928 2378 1081 2264 
Q 1234 2150 1697 2047 
L 1894 2003 
Q 2506 1872 2764 1633 
Q 3022 1394 3022 966 
Q 3022 478 2636 193 
Q 2250 -91 1575 -91 
Q 1294 -91 989 -36 
Q 684 19 347 128 
L 347 722 
Q 666 556 975 473 
Q 1284 391 1588 391 
Q 1994 391 2212 530 
Q 2431 669 2431 922 
Q 2431 1156 2273 1281 
Q 2116 1406 1581 1522 
L 1381 1569 
Q 847 1681 609 1914 
Q 372 2147 372 2553 
Q 372 3047 722 3315 
Q 1072 3584 1716 3584 
Q 2034 3584 2315 3537 
Q 2597 3491 2834 3397 
z
" transform="scale(0.015625)"/>
       <path id="DejaVuSans-6d" d="M 3328 2828 
Q 3544 3216 3844 3400 
Q 4144 3584 4550 3584 
Q 5097 3584 5394 3201 
Q 5691 2819 5691 2113 
L 5691 0 
L 5113 0 
L 5113 2094 
Q 5113 2597 4934 2840 
Q 4756 3084 4391 3084 
Q 3944 3084 3684 2787 
Q 3425 2491 3425 1978 
L 3425 0 
L 2847 0 
L 2847 2094 
Q 2847 2600 2669 2842 
Q 2491 3084 2119 3084 
Q 1678 3084 1418 2786 
Q 1159 2488 1159 1978 
L 1159 0 
L 581 0 
L 581 3500 
L 1159 3500 
L 1159 2956 
Q 1356 3278 1631 3431 
Q 1906 3584 2284 3584 
Q 2666 3584 2933 3390 
Q 3200 3197 3328 2828 
z
" transform="scale(0.015625)"/>
      </defs>
      <use xlink:href="#DejaVuSans-45"/>
      <use xlink:href="#DejaVuSans-78" transform="translate(63.183594 0)"/>
      <use xlink:href="#DejaVuSans-74" transform="translate(122.363281 0)"/>
      <use xlink:href="#DejaVuSans-65" transform="translate(161.572266 0)"/>
      <use xlink:href="#DejaVuSans-72" transform="translate(223.095703 0)"/>
      <use xlink:href="#DejaVuSans-6e" transform="translate(262.458984 0)"/>
      <use xlink:href="#DejaVuSans-61" transform="translate(325.837891 0)"/>
      <use xlink:href="#DejaVuSans-6c" transform="translate(387.117188 0)"/>
      <use xlink:href="#DejaVuSans-20" transform="translate(414.900391 0)"/>
      <use xlink:href="#DejaVuSans-53" transform="translate(446.6875 0)"/>
      <use xlink:href="#DejaVuSans-79" transform="translate(510.164062 0)"/>
      <use xlink:href="#DejaVuSans-73" transform="translate(569.34375 0)"/>
      <use xlink:href="#DejaVuSans-74" transform="translate(621.443359 0)"/>
      <use xlink:href="#DejaVuSans-65" transform="translate(660.652344 0)"/>
      <use xlink:href="#DejaVuSans-6d" transform="translate(722.175781 0)"/>
      <use xlink:href="#DejaVuSans-73" transform="translate(819.587891 0)"/>
     </g>
    </g>
    <g id="line2d_2">
     <path d="M 1011.014063 70.173437 
L 1021.014063 70.173437 
L 1031.014063 70.173437 
" style="fill: none; stroke: #ffffff; stroke-width: 1.5; stroke-linecap: square"/>
     <defs>
      <path id="m09638f3e8e" d="M 0 7.5 
C 1.989023 7.5 3.896849 6.709753 5.303301 5.303301 
C 6.709753 3.896849 7.5 1.989023 7.5 0 
C 7.5 -1.989023 6.709753 -3.896849 5.303301 -5.303301 
C 3.896849 -6.709753 1.989023 -7.5 0 -7.5 
C -1.989023 -7.5 -3.896849 -6.709753 -5.303301 -5.303301 
C -6.709753 -3.896849 -7.5 -1.989023 -7.5 0 
C -7.5 1.989023 -6.709753 3.896849 -5.303301 5.303301 
C -3.896849 6.709753 -1.989023 7.5 0 7.5 
z
" style="stroke: #ffffff"/>
     </defs>
     <g>
      <use xlink:href="#m09638f3e8e" x="1021.014063" y="70.173437" style="fill: #90ee90; stroke: #ffffff"/>
     </g>
    </g>
    <g id="text_17">
     <!-- Core Components -->
     <g transform="translate(1039.014063 73.673437) scale(0.1 -0.1)">
      <defs>
       <path id="DejaVuSans-43" d="M 4122 4306 
L 4122 3641 
Q 3803 3938 3442 4084 
Q 3081 4231 2675 4231 
Q 1875 4231 1450 3742 
Q 1025 3253 1025 2328 
Q 1025 1406 1450 917 
Q 1875 428 2675 428 
Q 3081 428 3442 575 
Q 3803 722 4122 1019 
L 4122 359 
Q 3791 134 3420 21 
Q 3050 -91 2638 -91 
Q 1578 -91 968 557 
Q 359 1206 359 2328 
Q 359 3453 968 4101 
Q 1578 4750 2638 4750 
Q 3056 4750 3426 4639 
Q 3797 4528 4122 4306 
z
" transform="scale(0.015625)"/>
       <path id="DejaVuSans-6f" d="M 1959 3097 
Q 1497 3097 1228 2736 
Q 959 2375 959 1747 
Q 959 1119 1226 758 
Q 1494 397 1959 397 
Q 2419 397 2687 759 
Q 2956 1122 2956 1747 
Q 2956 2369 2687 2733 
Q 2419 3097 1959 3097 
z
M 1959 3584 
Q 2709 3584 3137 3096 
Q 3566 2609 3566 1747 
Q 3566 888 3137 398 
Q 2709 -91 1959 -91 
Q 1206 -91 779 398 
Q 353 888 353 1747 
Q 353 2609 779 3096 
Q 1206 3584 1959 3584 
z
" transform="scale(0.015625)"/>
       <path id="DejaVuSans-70" d="M 1159 525 
L 1159 -1331 
L 581 -1331 
L 581 3500 
L 1159 3500 
L 1159 2969 
Q 1341 3281 1617 3432 
Q 1894 3584 2278 3584 
Q 2916 3584 3314 3078 
Q 3713 2572 3713 1747 
Q 3713 922 3314 415 
Q 2916 -91 2278 -91 
Q 1894 -91 1617 61 
Q 1341 213 1159 525 
z
M 3116 1747 
Q 3116 2381 2855 2742 
Q 2594 3103 2138 3103 
Q 1681 3103 1420 2742 
Q 1159 2381 1159 1747 
Q 1159 1113 1420 752 
Q 1681 391 2138 391 
Q 2594 391 2855 752 
Q 3116 1113 3116 1747 
z
" transform="scale(0.015625)"/>
      </defs>
      <use xlink:href="#DejaVuSans-43"/>
      <use xlink:href="#DejaVuSans-6f" transform="translate(69.824219 0)"/>
      <use xlink:href="#DejaVuSans-72" transform="translate(131.005859 0)"/>
      <use xlink:href="#DejaVuSans-65" transform="translate(169.869141 0)"/>
      <use xlink:href="#DejaVuSans-20" transform="translate(231.392578 0)"/>
      <use xlink:href="#DejaVuSans-43" transform="translate(263.179688 0)"/>
      <use xlink:href="#DejaVuSans-6f" transform="translate(333.003906 0)"/>
      <use xlink:href="#DejaVuSans-6d" transform="translate(394.185547 0)"/>
      <use xlink:href="#DejaVuSans-70" transform="translate(491.597656 0)"/>
      <use xlink:href="#DejaVuSans-6f" transform="translate(555.074219 0)"/>
      <use xlink:href="#DejaVuSans-6e" transform="translate(616.255859 0)"/>
      <use xlink:href="#DejaVuSans-65" transform="translate(679.634766 0)"/>
      <use xlink:href="#DejaVuSans-6e" transform="translate(741.158203 0)"/>
      <use xlink:href="#DejaVuSans-74" transform="translate(804.537109 0)"/>
      <use xlink:href="#DejaVuSans-73" transform="translate(843.746094 0)"/>
     </g>
    </g>
    <g id="line2d_3">
     <path d="M 1011.014063 84.851562 
L 1021.014063 84.851562 
L 1031.014063 84.851562 
" style="fill: none; stroke: #ffffff; stroke-width: 1.5; stroke-linecap: square"/>
     <defs>
      <path id="mab46fd1a25" d="M 0 -7.5 
L -6.495191 -3.75 
L -6.495191 3.75 
L -0 7.5 
L 6.495191 3.75 
L 6.495191 -3.75 
z
" style="stroke: #ffffff; stroke-linejoin: miter"/>
     </defs>
     <g>
      <use xlink:href="#mab46fd1a25" x="1021.014063" y="84.851562" style="fill: #ffffe0; stroke: #ffffff; stroke-linejoin: miter"/>
     </g>
    </g>
    <g id="text_18">
     <!-- Workflows -->
     <g transform="translate(1039.014063 88.351562) scale(0.1 -0.1)">
      <defs>
       <path id="DejaVuSans-57" d="M 213 4666 
L 850 4666 
L 1831 722 
L 2809 4666 
L 3519 4666 
L 4500 722 
L 5478 4666 
L 6119 4666 
L 4947 0 
L 4153 0 
L 3169 4050 
L 2175 0 
L 1381 0 
L 213 4666 
z
" transform="scale(0.015625)"/>
       <path id="DejaVuSans-6b" d="M 581 4863 
L 1159 4863 
L 1159 1991 
L 2875 3500 
L 3609 3500 
L 1753 1863 
L 3688 0 
L 2938 0 
L 1159 1709 
L 1159 0 
L 581 0 
L 581 4863 
z
" transform="scale(0.015625)"/>
       <path id="DejaVuSans-66" d="M 2375 4863 
L 2375 4384 
L 1825 4384 
Q 1516 4384 1395 4259 
Q 1275 4134 1275 3809 
L 1275 3500 
L 2222 3500 
L 2222 3053 
L 1275 3053 
L 1275 0 
L 697 0 
L 697 3053 
L 147 3053 
L 147 3500 
L 697 3500 
L 697 3744 
Q 697 4328 969 4595 
Q 1241 4863 1831 4863 
L 2375 4863 
z
" transform="scale(0.015625)"/>
       <path id="DejaVuSans-77" d="M 269 3500 
L 844 3500 
L 1563 769 
L 2278 3500 
L 2956 3500 
L 3675 769 
L 4391 3500 
L 4966 3500 
L 4050 0 
L 3372 0 
L 2619 2869 
L 1863 0 
L 1184 0 
L 269 3500 
z
" transform="scale(0.015625)"/>
      </defs>
      <use xlink:href="#DejaVuSans-57"/>
      <use xlink:href="#DejaVuSans-6f" transform="translate(93.001953 0)"/>
      <use xlink:href="#DejaVuSans-72" transform="translate(154.183594 0)"/>
      <use xlink:href="#DejaVuSans-6b" transform="translate(195.296875 0)"/>
      <use xlink:href="#DejaVuSans-66" transform="translate(253.207031 0)"/>
      <use xlink:href="#DejaVuSans-6c" transform="translate(288.412109 0)"/>
      <use xlink:href="#DejaVuSans-6f" transform="translate(316.195312 0)"/>
      <use xlink:href="#DejaVuSans-77" transform="translate(377.376953 0)"/>
      <use xlink:href="#DejaVuSans-73" transform="translate(459.164062 0)"/>
     </g>
    </g>
    <g id="line2d_4">
     <path d="M 1011.014063 99.529687 
L 1021.014063 99.529687 
L 1031.014063 99.529687 
" style="fill: none; stroke: #ffffff; stroke-width: 1.5; stroke-linecap: square"/>
     <defs>
      <path id="m51b5398fe8" d="M -0 10.606602 
L 6.363961 0 
L 0 -10.606602 
L -6.363961 -0 
z
" style="stroke: #ffffff; stroke-linejoin: miter"/>
     </defs>
     <g>
      <use xlink:href="#m51b5398fe8" x="1021.014063" y="99.529687" style="fill: #ffb6c1; stroke: #ffffff; stroke-linejoin: miter"/>
     </g>
    </g>
    <g id="text_19">
     <!-- Interfaces -->
     <g transform="translate(1039.014063 103.029687) scale(0.1 -0.1)">
      <defs>
       <path id="DejaVuSans-49" d="M 628 4666 
L 1259 4666 
L 1259 0 
L 628 0 
L 628 4666 
z
" transform="scale(0.015625)"/>
       <path id="DejaVuSans-63" d="M 3122 3366 
L 3122 2828 
Q 2878 2963 2633 3030 
Q 2388 3097 2138 3097 
Q 1578 3097 1268 2742 
Q 959 2388 959 1747 
Q 959 1106 1268 751 
Q 1578 397 2138 397 
Q 2388 397 2633 464 
Q 2878 531 3122 666 
L 3122 134 
Q 2881 22 2623 -34 
Q 2366 -91 2075 -91 
Q 1284 -91 818 406 
Q 353 903 353 1747 
Q 353 2603 823 3093 
Q 1294 3584 2113 3584 
Q 2378 3584 2631 3529 
Q 2884 3475 3122 3366 
z
" transform="scale(0.015625)"/>
      </defs>
      <use xlink:href="#DejaVuSans-49"/>
      <use xlink:href="#DejaVuSans-6e" transform="translate(29.492188 0)"/>
      <use xlink:href="#DejaVuSans-74" transform="translate(92.871094 0)"/>
      <use xlink:href="#DejaVuSans-65" transform="translate(132.080078 0)"/>
      <use xlink:href="#DejaVuSans-72" transform="translate(193.603516 0)"/>
      <use xlink:href="#DejaVuSans-66" transform="translate(234.716797 0)"/>
      <use xlink:href="#DejaVuSans-61" transform="translate(269.921875 0)"/>
      <use xlink:href="#DejaVuSans-63" transform="translate(331.201172 0)"/>
      <use xlink:href="#DejaVuSans-65" transform="translate(386.181641 0)"/>
      <use xlink:href="#DejaVuSans-73" transform="translate(447.705078 0)"/>
     </g>
    </g>
   </g>
  </g>
 </g>
 <defs>
  <clipPath id="p80b7947fa2">
   <rect x="7.2" y="42.396875" width="1130.4" height="806.56"/>
  </clipPath>
 </defs>
</svg>
